<?xml version="1.0" encoding="UTF-8"?>
<svg viewBox="0 0 1024 1024" xmlns="http://www.w3.org/2000/svg">
  <title>Chess Logo</title>
  <rect x="68" y="68" width="888" height="888" fill="#fff"/>
  <path d="M0 918.55C0 620.76 0 323.96 0 27.14 0 5.75 5.47.62 26.73.62c322.55 0 645.12.12 967.68-.23 23.73-.03 29.44 9.79 29.44 30.43 0 161.34 0 322.68 0 484.03 0 158.43.04 316.86.06 475.3 0 3.88.15 7.78-.16 11.63-1.24 15.3-9.05 22.58-24.31 22.59-134.11.04-268.21.05-402.32.05-190.38 0-380.77 0-571.16 0-6.42 0-12.94.57-18.37-4.03-5.56-4.72-7.67-10.7-7.63-17.99.16-27.48.04-54.96.02-83.42m908.96-658.63c0-42.35 0-84.71 0-127.06 0-17.22-1.55-18.75-18.76-18.75-111.59.01-223.18.04-334.77.03-141.5-.01-283-.05-424.49-.06-13.83 0-15.75 1.65-16.29 15.34-.6 15.17-1 30.36-1.15 45.54-.47 47.15 1.14 94.29.23 141.46-.8 41-.62 82.03.69 123.05.17 102.14.22 204.28.13 306.42-.04 50.1-.62 100.19-.69 150.29-.02 12.1 5.31 16.35 16.94 15.17 4.47-.46 8.97-.78 13.46-.78 248.59-.06 497.16-.08 745.75-.11 18.48 0 18.93-.49 18.93-19.09 0-209.83 0-419.66 0-631.43z" fill="#000"/>
  <path d="M455.94 565.78c4.83-22.94 6.86-45.38 8.04-67.93.41-7.83-2.53-11.35-10.46-11.27-18.33.19-36.75-1.13-54.96.34-23.85 1.92-33.3-18.22-29.2-40.08 2.88-15.34 11.22-21.68 27.08-21.71 17.68-.04 35.37.08 53.05-.07 5.96-.05 12.74.94 15.33-6.83 3.13-9.41.14-18.83-7.11-23.59-32.08-21.07-49.44-51-48.11-89.41 1.94-56.35 43.58-94.88 93.99-99.08 53.25-4.43 99.32 31.43 109.17 83.34 7.84 41.31-10.43 82.47-46.4 104.53-7.3 4.47-11.23 21.54-6.59 28.41 1.97 2.92 4.94 2.71 7.79 2.64 17.98-.46 35.99.79 53.97-.89 14.34-1.33 24.52 4.73 29.51 16.84 5.97 14.49 2.86 31.91-7.3 40.3-4.65 3.83-10.02 5.39-16.09 5.35-18.97-.14-37.94.06-56.91-.05-7.23-.04-12.2 2.37-11.75 10.47 3.71 65.49 14.69 128.95 53.36 184.11 17.64 25.17 40.46 44.12 70.13 53.54 8.33 2.64 11.9 7.72 11.73 16.42-.29 14.86.03 29.74-.11 44.61-.1 10.45-3.75 14.72-14.04 16.02-5.4.68-10.91.56-16.37.56-103.85-.01-207.7-.04-311.55-.1-18.78-.01-23.6-4.71-23.42-23.41.13-13.56.91-27.11 1.08-40.67.08-6.09 2.88-9.73 8.32-11.56 54.73-18.37 83.25-61.08 102.34-112.16 6.99-18.7 12.09-38.07 15.47-58.67z" fill="#000"/>
</svg>
