<?xml version="1.0" encoding="UTF-8"?>
<svg enable-background="new 0 0 612 612" version="1.1" viewBox="0 0 612 612" xml:space="preserve" xmlns="http://www.w3.org/2000/svg"><title>Chess page logo</title><g fill="none" stroke="#000" stroke-linecap="round" stroke-linejoin="round">
<path d="m264 218.5c-4.8451 2.6615-10.307 2.1808-15.507 2.9523-5.9528 0.883-12.047 1.078-17.487 4.0589-6.0099 3.2931-6.4005 7.3232-0.9868 11.464 6.0197 4.6039 13.325 6.006 20.495 7.452 5.2556 1.0599 10.576 1.8824 15.981 2.1604 3.0823 0.15854 5.3398 1.8212 5.7902 5.4083 1.8604 14.815 1.7101 29.672 0.66422 44.501-2.301 32.625-16.188 60.84-33.957 87.499-9.46 14.193-18.956 28.363-28.515 42.49-2.9159 4.3094-4.6547 9.1255-5.8461 14.047-0.74567 3.0799-0.097931 6.3803 1.3001 9.4986 1.5398 3.4347 1.6927 6.4817-1.8306 9.5846-7.011 6.1747-11.316 14.193-13.368 23.381-1.3013 5.825 0.12866 9.0527 5.7781 11.478 12.816 5.5022 26.066 9.3165 39.979 11.104 23.753 3.0522 47.572 4.5231 71.508 5.0399 15.418 0.33292 30.754-0.37787 45.987-2.2465 17.454-2.1411 34.984-4.2534 51.982-8.9918 5.1922-1.4473 10.534-2.9228 15.087-6.3085 2.6526-1.9729 2.7676-4.4677 2.3956-7.0644-1.312-9.1577-5.5182-17.157-12.093-23.354-4.9095-4.6277-7.152-8.7789-3.9188-15.185 2.1879-4.3351 0.73483-8.9477-1.041-12.922-5.8556-13.104-14.954-24.235-22.969-35.997-11.481-16.848-22.437-33.97-30.906-52.559-6.4477-14.154-10.229-28.985-12.176-44.471-1.8286-14.54-1.0013-29.01-0.79105-43.519 0.033875-2.3389 0.7316-4.6773 1.2081-6.9984 0.63388-3.0877 2.8692-4.2738 5.739-4.4909 8.1227-0.61462 16.19-1.6649 23.981-4.0701 4.5579-1.4071 9.4015-2.316 13.033-5.9265 5.2131-5.1829 3.0198-8.553-1.9583-11.125-4.9765-2.5708-10.318-2.9606-15.571-3.7997-5.3291-0.85129-10.919-0.4745-15.935-2.7042-2.0012-0.88956-3.2828 0.3163-4.5025 0.74881-16.262 5.7671-32.83 7.6664-50.065 6.0448-9.0829-0.85462-17.877-2.2288-26.504-5.1168-2.5582-0.85638-4.3651-1.801-5.6113-4.5021-1.4287-3.0969-3.7297-5.838-5.8908-8.5426-11.006-13.774-16.39-29.477-14.88-47.01 2.4037-27.913 18.254-51.372 47.979-56.573 22.735-3.9781 45.637-1.9383 62.894 17.092 9.115 10.052 14.273 21.899 16.127 35.46 2.7334 19.994-3.1676 37.112-15.509 52.583-2.0866 2.6159-5.1724 4.957-5.088 8.9299" stroke-width="6"/>
<path d="m207.5 457c15.297 9.1087 32.093 13.511 49.478 16.622 18.905 3.3838 37.918 4.5182 57.021 4.3018 21.801-0.24701 43.419-2.4046 64.502-8.4193 9.6583-2.7554 18.726-6.7668 26.999-12.505" stroke-width="6"/><g stroke-width="5">
<path d="m282.5 268.5c1.0336 16.048 0.70703 32.081-1.5753 47.989-1.9871 13.85-5.7283 27.267-10.294 40.556-9.9169 28.864-26.496 53.381-47.131 75.455"/>
<path d="m387.5 454.5c-12.621 6.3117-26.067 9.576-39.986 11.596-14.964 2.1719-29.964 2.7151-45.013 2.3557-16.18-0.38641-32.2-2.575-47.979-6.0533-9.9893-2.202-19.55-6.0028-29.022-9.8987"/>
<path d="m331.5 289.5c-1.2426 5.6667-0.7009 11.413 0.11169 16.984 1.7693 12.13 3.827 24.165 7.1613 36.08 5.5775 19.93 13.886 38.436 24.717 55.943 5.4183 8.7581 11.691 16.89 18.01 24.994"/>
<path d="m353.5 192.5c13.651-24.793 7.6459-56.226-17.142-72.281-12.306-7.9707-26.551-10.745-41.365-6.746-0.77676 0.20965-1.6594 0.027031-2.4927 0.027031"/>
<path d="m382.5 446.5c-12.61 6.2571-26.126 8.8741-39.987 10.607-11.851 1.4818-23.702 1.0917-35.508 0.72214-12.458-0.39002-24.959-1.5343-37.019-5.2853-1.0637-0.33087-2.3197-0.043915-3.4863-0.043915"/>
</g><path d="m286.5 323.5c-3.4319 35.513-12.31 69.005-36 97" stroke-width="4"/>
<path d="m341 248.5c-3.7513-2.0542-7.6774-0.66557-11.498-0.4559-17.184 0.94315-34.352 1.3766-51.504-0.53305-2.0715-0.23065-4.1094-0.007904-5.9988 0.98895" stroke-width="6"/><g stroke-width="5">
<path d="m262.5 134.5c-13.203 22.407-10.905 47.29 6 67"/>
<path d="m417 474.5c-1.0693 3.3524-3.3118 5.8724-6.5204 6.9386-18.53 6.1578-37.295 11.311-56.98 12.061"/>
<path d="m196.5 474c5.8307 5.4575 13.368 7.5983 20.507 10.484 13.625 5.5072 27.905 8.0075 42.493 9.0164"/>
</g><path d="m248.5 228.5c-2.1765 0.07843-3.7526 1.4775-5.6983 2.4166 1.0178 3.1574 3.4508 4.2115 6.2016 4.557 14.611 1.835 29.255 3.2914 43.996 3.5457 1.1692 0.020156 2.3337 0.31401 3.5003 0.48067" stroke-width="4"/>
<path d="m327.5 128.5c16.798 7.9012 26.251 26.948 23.016 47.503-0.12796 0.8132-0.016327 1.6641-0.016327 2.4974" stroke-width="4"/>
<path d="m340.5 209.5c-6.7495 4.7456-14.326 6.8254-22.5 7.0023-9.5622 0.20688-19.056-0.53485-28.5-2.0023" stroke-width="6"/><g stroke-width="4">
<path d="m367.5 441.5c-11.113 5.2274-22.763 7.0756-35.007 6.0921-4.3303-0.34781-8.6843-0.43399-12.993-1.0921"/>
<path d="m330.5 255.5c-8.0829 3.3374-16.466 3.6472-25.001 2.5059-3.9954-0.53427-7.9992-1.0059-11.999-1.5059"/>
<path d="m366.5 233.5c-7.7491 2.8709-15.833 4.1595-24.002 4.982-4.3231 0.43523-8.6649 0.68466-12.998 1.018"/>
</g></g></svg>
