<?xml version="1.0" encoding="UTF-8"?>
<svg version="1.1" viewBox="0 0 1024 1024" xmlns="http://www.w3.org/2000/svg">
  <title>Chess</title>
  <rect x="68" y="68" width="888" height="888" fill="#fff" stroke-width="0" style="paint-order:markers stroke fill"/>
  <path d="m0.018256 918.55c0.0077184-297.79 0.017366-594.59 0.032031-891.41 0.001042-21.392 5.4741-26.912 26.729-26.912 322.55-5.82e-4 645.12 0.12222 967.68-0.22927 23.732-0.025802 29.442 9.7906 29.44 30.429-0.014 161.34-0.027 322.68-0.019 484.03 0.01 158.43 0.044 316.86 0.06 475.3 4e-4 3.8792 0.1515 7.7773-0.1615 11.634-1.2423 15.303-9.0494 22.582-24.313 22.586-134.11 0.037-268.21 0.048-402.32 0.048-190.38-5e-4 -380.77-0.017-571.16-0.023-6.4225-1e-4 -12.942 0.5715-18.375-4.0326-5.5648-4.7166-7.6721-10.696-7.6285-17.985 0.16459-27.482 0.042258-54.964 0.02412-83.416m908.96-658.63c2e-3 -42.354 0.01-84.706 2e-3 -127.06-2e-3 -17.221-1.552-18.748-18.76-18.746-111.59 0.0136-223.18 0.0365-334.77 0.0293-141.5-0.01-283-0.0468-424.49-0.0629-13.83-2e-3 -15.75 1.647-16.29 15.342-0.598 15.173-0.9949 30.359-1.1469 45.543-0.47209 47.152 1.1438 94.288 0.2276 141.46-0.79621 40.996 0.6245 82.031 0.69238 123.05 0.16903 102.14 0.21735 204.28 0.12793 306.42-0.0438 50.097-0.61924 100.19-0.68744 150.29-0.0174 12.099 5.3149 16.351 16.937 15.167 4.4668-0.45517 8.9694-0.78103 13.456-0.78209 248.59-0.0605 497.16-0.0759 745.75-0.11408 18.476-2e-3 18.93-0.48831 18.932-19.092 0.0135-209.83 0.0174-419.66 0.0237-631.43z" stroke-width="1.9348"/>
  <path d="m455.94 565.78c4.8294-22.942 6.8572-45.375 8.0445-67.927 0.41214-7.8277-2.5322-11.351-10.462-11.269-18.325 0.18818-36.745-1.1278-54.955 0.33733-23.854 1.9193-33.297-18.224-29.199-40.078 2.877-15.339 11.222-21.681 27.078-21.714 17.683-0.0373 35.368 0.0797 53.05-0.0745 5.9626-0.052 12.742 0.93537 15.326-6.8323 3.1296-9.4067 0.13893-18.826-7.1098-23.587-32.082-21.068-49.436-50.999-48.113-89.407 1.9427-56.349 43.582-94.883 93.991-99.078 53.245-4.4292 99.324 31.434 109.17 83.335 7.8421 41.312-10.428 82.469-46.401 104.53-7.2966 4.4744-11.225 21.54-6.5932 28.413 1.9655 2.9168 4.9407 2.7146 7.791 2.6423 17.984-0.45675 35.985 0.78689 53.965-0.88646 14.336-1.3341 24.521 4.7291 29.515 16.842 5.9748 14.491 2.8602 31.913-7.3001 40.296-4.649 3.8348-10.017 5.3913-16.09 5.3468-18.968-0.1391-37.94 0.0576-56.908-0.0466-7.2279-0.0396-12.203 2.368-11.745 10.466 3.7073 65.487 14.689 128.95 53.355 184.11 17.643 25.172 40.46 44.123 70.135 53.542 8.3328 2.6446 11.895 7.7204 11.727 16.423-0.28724 14.864 0.033 29.738-0.10728 44.606-0.0986 10.452-3.7533 14.718-14.042 16.017-5.3952 0.68167-10.909 0.55771-16.369 0.55722-103.85-0.01-207.7-0.0444-311.55-0.10127-18.782-0.01-23.599-4.7101-23.423-23.406 0.12658-13.559 0.91139-27.112 1.08-40.67 0.0756-6.0885 2.8765-9.7338 8.3239-11.562 54.729-18.373 83.251-61.075 102.34-112.16 6.989-18.7 12.085-38.067 15.469-58.669z" stroke-width="1.9348"/>
</svg>
