<?xml version="1.0" encoding="UTF-8"?>
<svg version="1.1" viewBox="0 0 4080 4080" xmlns="http://www.w3.org/2000/svg">
  <style type="text/css"><![CDATA[
  line {
    stroke: black;
    stroke-width: 15;
  }

  rect {
    fill: none;
    stroke: black;
    stroke-width: 30;
  }

  rect.highlight {
    fill: lime;
    stroke: none;
  }

  path.piece {
    fill: white;
    stroke: black;
    stroke-width: 15;
  }

  text {
    fill: black;
    stroke: none;
    font-family: sans;
    text-anchor: middle;
  }

  g.promoted > text {
    fill: red;
  }

  line.hatch {
    stroke: black;
    stroke-width: 8;
  }
]]></style>
  <defs></defs>
  <rect id="board-border" x="0" y="0" width="4080" height="4080"/>
  <g id="hatch-1-0">
    <line class="hatch" x1="510" y1="60" x2="570" y2="0"/>
    <line class="hatch" x1="510" y1="120" x2="630" y2="0"/>
    <line class="hatch" x1="510" y1="180" x2="690" y2="0"/>
    <line class="hatch" x1="510" y1="240" x2="750" y2="0"/>
    <line class="hatch" x1="510" y1="300" x2="810" y2="0"/>
    <line class="hatch" x1="510" y1="360" x2="870" y2="0"/>
    <line class="hatch" x1="510" y1="420" x2="930" y2="0"/>
    <line class="hatch" x1="510" y1="480" x2="990" y2="0"/>
    <line class="hatch" x1="540" y1="510" x2="1020" y2="30"/>
    <line class="hatch" x1="600" y1="510" x2="1020" y2="90"/>
    <line class="hatch" x1="660" y1="510" x2="1020" y2="150"/>
    <line class="hatch" x1="720" y1="510" x2="1020" y2="210"/>
    <line class="hatch" x1="780" y1="510" x2="1020" y2="270"/>
    <line class="hatch" x1="840" y1="510" x2="1020" y2="330"/>
    <line class="hatch" x1="900" y1="510" x2="1020" y2="390"/>
    <line class="hatch" x1="960" y1="510" x2="1020" y2="450"/>
  </g>
  <g id="hatch-3-0">
    <line class="hatch" x1="1530" y1="60" x2="1590" y2="0"/>
    <line class="hatch" x1="1530" y1="120" x2="1650" y2="0"/>
    <line class="hatch" x1="1530" y1="180" x2="1710" y2="0"/>
    <line class="hatch" x1="1530" y1="240" x2="1770" y2="0"/>
    <line class="hatch" x1="1530" y1="300" x2="1830" y2="0"/>
    <line class="hatch" x1="1530" y1="360" x2="1890" y2="0"/>
    <line class="hatch" x1="1530" y1="420" x2="1950" y2="0"/>
    <line class="hatch" x1="1530" y1="480" x2="2010" y2="0"/>
    <line class="hatch" x1="1560" y1="510" x2="2040" y2="30"/>
    <line class="hatch" x1="1620" y1="510" x2="2040" y2="90"/>
    <line class="hatch" x1="1680" y1="510" x2="2040" y2="150"/>
    <line class="hatch" x1="1740" y1="510" x2="2040" y2="210"/>
    <line class="hatch" x1="1800" y1="510" x2="2040" y2="270"/>
    <line class="hatch" x1="1860" y1="510" x2="2040" y2="330"/>
    <line class="hatch" x1="1920" y1="510" x2="2040" y2="390"/>
    <line class="hatch" x1="1980" y1="510" x2="2040" y2="450"/>
  </g>
  <g id="hatch-5-0">
    <line class="hatch" x1="2550" y1="60" x2="2610" y2="0"/>
    <line class="hatch" x1="2550" y1="120" x2="2670" y2="0"/>
    <line class="hatch" x1="2550" y1="180" x2="2730" y2="0"/>
    <line class="hatch" x1="2550" y1="240" x2="2790" y2="0"/>
    <line class="hatch" x1="2550" y1="300" x2="2850" y2="0"/>
    <line class="hatch" x1="2550" y1="360" x2="2910" y2="0"/>
    <line class="hatch" x1="2550" y1="420" x2="2970" y2="0"/>
    <line class="hatch" x1="2550" y1="480" x2="3030" y2="0"/>
    <line class="hatch" x1="2580" y1="510" x2="3060" y2="30"/>
    <line class="hatch" x1="2640" y1="510" x2="3060" y2="90"/>
    <line class="hatch" x1="2700" y1="510" x2="3060" y2="150"/>
    <line class="hatch" x1="2760" y1="510" x2="3060" y2="210"/>
    <line class="hatch" x1="2820" y1="510" x2="3060" y2="270"/>
    <line class="hatch" x1="2880" y1="510" x2="3060" y2="330"/>
    <line class="hatch" x1="2940" y1="510" x2="3060" y2="390"/>
    <line class="hatch" x1="3000" y1="510" x2="3060" y2="450"/>
  </g>
  <g id="hatch-7-0">
    <line class="hatch" x1="3570" y1="60" x2="3630" y2="0"/>
    <line class="hatch" x1="3570" y1="120" x2="3690" y2="0"/>
    <line class="hatch" x1="3570" y1="180" x2="3750" y2="0"/>
    <line class="hatch" x1="3570" y1="240" x2="3810" y2="0"/>
    <line class="hatch" x1="3570" y1="300" x2="3870" y2="0"/>
    <line class="hatch" x1="3570" y1="360" x2="3930" y2="0"/>
    <line class="hatch" x1="3570" y1="420" x2="3990" y2="0"/>
    <line class="hatch" x1="3570" y1="480" x2="4050" y2="0"/>
    <line class="hatch" x1="3600" y1="510" x2="4080" y2="30"/>
    <line class="hatch" x1="3660" y1="510" x2="4080" y2="90"/>
    <line class="hatch" x1="3720" y1="510" x2="4080" y2="150"/>
    <line class="hatch" x1="3780" y1="510" x2="4080" y2="210"/>
    <line class="hatch" x1="3840" y1="510" x2="4080" y2="270"/>
    <line class="hatch" x1="3900" y1="510" x2="4080" y2="330"/>
    <line class="hatch" x1="3960" y1="510" x2="4080" y2="390"/>
    <line class="hatch" x1="4020" y1="510" x2="4080" y2="450"/>
  </g>
  <g id="hatch-0-1">
    <line class="hatch" x1="0" y1="570" x2="60" y2="510"/>
    <line class="hatch" x1="0" y1="630" x2="120" y2="510"/>
    <line class="hatch" x1="0" y1="690" x2="180" y2="510"/>
    <line class="hatch" x1="0" y1="750" x2="240" y2="510"/>
    <line class="hatch" x1="0" y1="810" x2="300" y2="510"/>
    <line class="hatch" x1="0" y1="870" x2="360" y2="510"/>
    <line class="hatch" x1="0" y1="930" x2="420" y2="510"/>
    <line class="hatch" x1="0" y1="990" x2="480" y2="510"/>
    <line class="hatch" x1="30" y1="1020" x2="510" y2="540"/>
    <line class="hatch" x1="90" y1="1020" x2="510" y2="600"/>
    <line class="hatch" x1="150" y1="1020" x2="510" y2="660"/>
    <line class="hatch" x1="210" y1="1020" x2="510" y2="720"/>
    <line class="hatch" x1="270" y1="1020" x2="510" y2="780"/>
    <line class="hatch" x1="330" y1="1020" x2="510" y2="840"/>
    <line class="hatch" x1="390" y1="1020" x2="510" y2="900"/>
    <line class="hatch" x1="450" y1="1020" x2="510" y2="960"/>
  </g>
  <g id="hatch-2-1">
    <line class="hatch" x1="1020" y1="570" x2="1080" y2="510"/>
    <line class="hatch" x1="1020" y1="630" x2="1140" y2="510"/>
    <line class="hatch" x1="1020" y1="690" x2="1200" y2="510"/>
    <line class="hatch" x1="1020" y1="750" x2="1260" y2="510"/>
    <line class="hatch" x1="1020" y1="810" x2="1320" y2="510"/>
    <line class="hatch" x1="1020" y1="870" x2="1380" y2="510"/>
    <line class="hatch" x1="1020" y1="930" x2="1440" y2="510"/>
    <line class="hatch" x1="1020" y1="990" x2="1500" y2="510"/>
    <line class="hatch" x1="1050" y1="1020" x2="1530" y2="540"/>
    <line class="hatch" x1="1110" y1="1020" x2="1530" y2="600"/>
    <line class="hatch" x1="1170" y1="1020" x2="1530" y2="660"/>
    <line class="hatch" x1="1230" y1="1020" x2="1530" y2="720"/>
    <line class="hatch" x1="1290" y1="1020" x2="1530" y2="780"/>
    <line class="hatch" x1="1350" y1="1020" x2="1530" y2="840"/>
    <line class="hatch" x1="1410" y1="1020" x2="1530" y2="900"/>
    <line class="hatch" x1="1470" y1="1020" x2="1530" y2="960"/>
  </g>
  <g id="hatch-4-1">
    <line class="hatch" x1="2040" y1="570" x2="2100" y2="510"/>
    <line class="hatch" x1="2040" y1="630" x2="2160" y2="510"/>
    <line class="hatch" x1="2040" y1="690" x2="2220" y2="510"/>
    <line class="hatch" x1="2040" y1="750" x2="2280" y2="510"/>
    <line class="hatch" x1="2040" y1="810" x2="2340" y2="510"/>
    <line class="hatch" x1="2040" y1="870" x2="2400" y2="510"/>
    <line class="hatch" x1="2040" y1="930" x2="2460" y2="510"/>
    <line class="hatch" x1="2040" y1="990" x2="2520" y2="510"/>
    <line class="hatch" x1="2070" y1="1020" x2="2550" y2="540"/>
    <line class="hatch" x1="2130" y1="1020" x2="2550" y2="600"/>
    <line class="hatch" x1="2190" y1="1020" x2="2550" y2="660"/>
    <line class="hatch" x1="2250" y1="1020" x2="2550" y2="720"/>
    <line class="hatch" x1="2310" y1="1020" x2="2550" y2="780"/>
    <line class="hatch" x1="2370" y1="1020" x2="2550" y2="840"/>
    <line class="hatch" x1="2430" y1="1020" x2="2550" y2="900"/>
    <line class="hatch" x1="2490" y1="1020" x2="2550" y2="960"/>
  </g>
  <g id="hatch-6-1">
    <line class="hatch" x1="3060" y1="570" x2="3120" y2="510"/>
    <line class="hatch" x1="3060" y1="630" x2="3180" y2="510"/>
    <line class="hatch" x1="3060" y1="690" x2="3240" y2="510"/>
    <line class="hatch" x1="3060" y1="750" x2="3300" y2="510"/>
    <line class="hatch" x1="3060" y1="810" x2="3360" y2="510"/>
    <line class="hatch" x1="3060" y1="870" x2="3420" y2="510"/>
    <line class="hatch" x1="3060" y1="930" x2="3480" y2="510"/>
    <line class="hatch" x1="3060" y1="990" x2="3540" y2="510"/>
    <line class="hatch" x1="3090" y1="1020" x2="3570" y2="540"/>
    <line class="hatch" x1="3150" y1="1020" x2="3570" y2="600"/>
    <line class="hatch" x1="3210" y1="1020" x2="3570" y2="660"/>
    <line class="hatch" x1="3270" y1="1020" x2="3570" y2="720"/>
    <line class="hatch" x1="3330" y1="1020" x2="3570" y2="780"/>
    <line class="hatch" x1="3390" y1="1020" x2="3570" y2="840"/>
    <line class="hatch" x1="3450" y1="1020" x2="3570" y2="900"/>
    <line class="hatch" x1="3510" y1="1020" x2="3570" y2="960"/>
  </g>
  <g id="hatch-1-2">
    <line class="hatch" x1="510" y1="1080" x2="570" y2="1020"/>
    <line class="hatch" x1="510" y1="1140" x2="630" y2="1020"/>
    <line class="hatch" x1="510" y1="1200" x2="690" y2="1020"/>
    <line class="hatch" x1="510" y1="1260" x2="750" y2="1020"/>
    <line class="hatch" x1="510" y1="1320" x2="810" y2="1020"/>
    <line class="hatch" x1="510" y1="1380" x2="870" y2="1020"/>
    <line class="hatch" x1="510" y1="1440" x2="930" y2="1020"/>
    <line class="hatch" x1="510" y1="1500" x2="990" y2="1020"/>
    <line class="hatch" x1="540" y1="1530" x2="1020" y2="1050"/>
    <line class="hatch" x1="600" y1="1530" x2="1020" y2="1110"/>
    <line class="hatch" x1="660" y1="1530" x2="1020" y2="1170"/>
    <line class="hatch" x1="720" y1="1530" x2="1020" y2="1230"/>
    <line class="hatch" x1="780" y1="1530" x2="1020" y2="1290"/>
    <line class="hatch" x1="840" y1="1530" x2="1020" y2="1350"/>
    <line class="hatch" x1="900" y1="1530" x2="1020" y2="1410"/>
    <line class="hatch" x1="960" y1="1530" x2="1020" y2="1470"/>
  </g>
  <g id="hatch-3-2">
    <line class="hatch" x1="1530" y1="1080" x2="1590" y2="1020"/>
    <line class="hatch" x1="1530" y1="1140" x2="1650" y2="1020"/>
    <line class="hatch" x1="1530" y1="1200" x2="1710" y2="1020"/>
    <line class="hatch" x1="1530" y1="1260" x2="1770" y2="1020"/>
    <line class="hatch" x1="1530" y1="1320" x2="1830" y2="1020"/>
    <line class="hatch" x1="1530" y1="1380" x2="1890" y2="1020"/>
    <line class="hatch" x1="1530" y1="1440" x2="1950" y2="1020"/>
    <line class="hatch" x1="1530" y1="1500" x2="2010" y2="1020"/>
    <line class="hatch" x1="1560" y1="1530" x2="2040" y2="1050"/>
    <line class="hatch" x1="1620" y1="1530" x2="2040" y2="1110"/>
    <line class="hatch" x1="1680" y1="1530" x2="2040" y2="1170"/>
    <line class="hatch" x1="1740" y1="1530" x2="2040" y2="1230"/>
    <line class="hatch" x1="1800" y1="1530" x2="2040" y2="1290"/>
    <line class="hatch" x1="1860" y1="1530" x2="2040" y2="1350"/>
    <line class="hatch" x1="1920" y1="1530" x2="2040" y2="1410"/>
    <line class="hatch" x1="1980" y1="1530" x2="2040" y2="1470"/>
  </g>
  <g id="hatch-5-2">
    <line class="hatch" x1="2550" y1="1080" x2="2610" y2="1020"/>
    <line class="hatch" x1="2550" y1="1140" x2="2670" y2="1020"/>
    <line class="hatch" x1="2550" y1="1200" x2="2730" y2="1020"/>
    <line class="hatch" x1="2550" y1="1260" x2="2790" y2="1020"/>
    <line class="hatch" x1="2550" y1="1320" x2="2850" y2="1020"/>
    <line class="hatch" x1="2550" y1="1380" x2="2910" y2="1020"/>
    <line class="hatch" x1="2550" y1="1440" x2="2970" y2="1020"/>
    <line class="hatch" x1="2550" y1="1500" x2="3030" y2="1020"/>
    <line class="hatch" x1="2580" y1="1530" x2="3060" y2="1050"/>
    <line class="hatch" x1="2640" y1="1530" x2="3060" y2="1110"/>
    <line class="hatch" x1="2700" y1="1530" x2="3060" y2="1170"/>
    <line class="hatch" x1="2760" y1="1530" x2="3060" y2="1230"/>
    <line class="hatch" x1="2820" y1="1530" x2="3060" y2="1290"/>
    <line class="hatch" x1="2880" y1="1530" x2="3060" y2="1350"/>
    <line class="hatch" x1="2940" y1="1530" x2="3060" y2="1410"/>
    <line class="hatch" x1="3000" y1="1530" x2="3060" y2="1470"/>
  </g>
  <g id="hatch-7-2">
    <line class="hatch" x1="3570" y1="1080" x2="3630" y2="1020"/>
    <line class="hatch" x1="3570" y1="1140" x2="3690" y2="1020"/>
    <line class="hatch" x1="3570" y1="1200" x2="3750" y2="1020"/>
    <line class="hatch" x1="3570" y1="1260" x2="3810" y2="1020"/>
    <line class="hatch" x1="3570" y1="1320" x2="3870" y2="1020"/>
    <line class="hatch" x1="3570" y1="1380" x2="3930" y2="1020"/>
    <line class="hatch" x1="3570" y1="1440" x2="3990" y2="1020"/>
    <line class="hatch" x1="3570" y1="1500" x2="4050" y2="1020"/>
    <line class="hatch" x1="3600" y1="1530" x2="4080" y2="1050"/>
    <line class="hatch" x1="3660" y1="1530" x2="4080" y2="1110"/>
    <line class="hatch" x1="3720" y1="1530" x2="4080" y2="1170"/>
    <line class="hatch" x1="3780" y1="1530" x2="4080" y2="1230"/>
    <line class="hatch" x1="3840" y1="1530" x2="4080" y2="1290"/>
    <line class="hatch" x1="3900" y1="1530" x2="4080" y2="1350"/>
    <line class="hatch" x1="3960" y1="1530" x2="4080" y2="1410"/>
    <line class="hatch" x1="4020" y1="1530" x2="4080" y2="1470"/>
  </g>
  <g id="hatch-0-3">
    <line class="hatch" x1="0" y1="1590" x2="60" y2="1530"/>
    <line class="hatch" x1="0" y1="1650" x2="120" y2="1530"/>
    <line class="hatch" x1="0" y1="1710" x2="180" y2="1530"/>
    <line class="hatch" x1="0" y1="1770" x2="240" y2="1530"/>
    <line class="hatch" x1="0" y1="1830" x2="300" y2="1530"/>
    <line class="hatch" x1="0" y1="1890" x2="360" y2="1530"/>
    <line class="hatch" x1="0" y1="1950" x2="420" y2="1530"/>
    <line class="hatch" x1="0" y1="2010" x2="480" y2="1530"/>
    <line class="hatch" x1="30" y1="2040" x2="510" y2="1560"/>
    <line class="hatch" x1="90" y1="2040" x2="510" y2="1620"/>
    <line class="hatch" x1="150" y1="2040" x2="510" y2="1680"/>
    <line class="hatch" x1="210" y1="2040" x2="510" y2="1740"/>
    <line class="hatch" x1="270" y1="2040" x2="510" y2="1800"/>
    <line class="hatch" x1="330" y1="2040" x2="510" y2="1860"/>
    <line class="hatch" x1="390" y1="2040" x2="510" y2="1920"/>
    <line class="hatch" x1="450" y1="2040" x2="510" y2="1980"/>
  </g>
  <g id="hatch-2-3">
    <line class="hatch" x1="1020" y1="1590" x2="1080" y2="1530"/>
    <line class="hatch" x1="1020" y1="1650" x2="1140" y2="1530"/>
    <line class="hatch" x1="1020" y1="1710" x2="1200" y2="1530"/>
    <line class="hatch" x1="1020" y1="1770" x2="1260" y2="1530"/>
    <line class="hatch" x1="1020" y1="1830" x2="1320" y2="1530"/>
    <line class="hatch" x1="1020" y1="1890" x2="1380" y2="1530"/>
    <line class="hatch" x1="1020" y1="1950" x2="1440" y2="1530"/>
    <line class="hatch" x1="1020" y1="2010" x2="1500" y2="1530"/>
    <line class="hatch" x1="1050" y1="2040" x2="1530" y2="1560"/>
    <line class="hatch" x1="1110" y1="2040" x2="1530" y2="1620"/>
    <line class="hatch" x1="1170" y1="2040" x2="1530" y2="1680"/>
    <line class="hatch" x1="1230" y1="2040" x2="1530" y2="1740"/>
    <line class="hatch" x1="1290" y1="2040" x2="1530" y2="1800"/>
    <line class="hatch" x1="1350" y1="2040" x2="1530" y2="1860"/>
    <line class="hatch" x1="1410" y1="2040" x2="1530" y2="1920"/>
    <line class="hatch" x1="1470" y1="2040" x2="1530" y2="1980"/>
  </g>
  <g id="hatch-4-3">
    <line class="hatch" x1="2040" y1="1590" x2="2100" y2="1530"/>
    <line class="hatch" x1="2040" y1="1650" x2="2160" y2="1530"/>
    <line class="hatch" x1="2040" y1="1710" x2="2220" y2="1530"/>
    <line class="hatch" x1="2040" y1="1770" x2="2280" y2="1530"/>
    <line class="hatch" x1="2040" y1="1830" x2="2340" y2="1530"/>
    <line class="hatch" x1="2040" y1="1890" x2="2400" y2="1530"/>
    <line class="hatch" x1="2040" y1="1950" x2="2460" y2="1530"/>
    <line class="hatch" x1="2040" y1="2010" x2="2520" y2="1530"/>
    <line class="hatch" x1="2070" y1="2040" x2="2550" y2="1560"/>
    <line class="hatch" x1="2130" y1="2040" x2="2550" y2="1620"/>
    <line class="hatch" x1="2190" y1="2040" x2="2550" y2="1680"/>
    <line class="hatch" x1="2250" y1="2040" x2="2550" y2="1740"/>
    <line class="hatch" x1="2310" y1="2040" x2="2550" y2="1800"/>
    <line class="hatch" x1="2370" y1="2040" x2="2550" y2="1860"/>
    <line class="hatch" x1="2430" y1="2040" x2="2550" y2="1920"/>
    <line class="hatch" x1="2490" y1="2040" x2="2550" y2="1980"/>
  </g>
  <g id="hatch-6-3">
    <line class="hatch" x1="3060" y1="1590" x2="3120" y2="1530"/>
    <line class="hatch" x1="3060" y1="1650" x2="3180" y2="1530"/>
    <line class="hatch" x1="3060" y1="1710" x2="3240" y2="1530"/>
    <line class="hatch" x1="3060" y1="1770" x2="3300" y2="1530"/>
    <line class="hatch" x1="3060" y1="1830" x2="3360" y2="1530"/>
    <line class="hatch" x1="3060" y1="1890" x2="3420" y2="1530"/>
    <line class="hatch" x1="3060" y1="1950" x2="3480" y2="1530"/>
    <line class="hatch" x1="3060" y1="2010" x2="3540" y2="1530"/>
    <line class="hatch" x1="3090" y1="2040" x2="3570" y2="1560"/>
    <line class="hatch" x1="3150" y1="2040" x2="3570" y2="1620"/>
    <line class="hatch" x1="3210" y1="2040" x2="3570" y2="1680"/>
    <line class="hatch" x1="3270" y1="2040" x2="3570" y2="1740"/>
    <line class="hatch" x1="3330" y1="2040" x2="3570" y2="1800"/>
    <line class="hatch" x1="3390" y1="2040" x2="3570" y2="1860"/>
    <line class="hatch" x1="3450" y1="2040" x2="3570" y2="1920"/>
    <line class="hatch" x1="3510" y1="2040" x2="3570" y2="1980"/>
  </g>
  <g id="hatch-1-4">
    <line class="hatch" x1="510" y1="2100" x2="570" y2="2040"/>
    <line class="hatch" x1="510" y1="2160" x2="630" y2="2040"/>
    <line class="hatch" x1="510" y1="2220" x2="690" y2="2040"/>
    <line class="hatch" x1="510" y1="2280" x2="750" y2="2040"/>
    <line class="hatch" x1="510" y1="2340" x2="810" y2="2040"/>
    <line class="hatch" x1="510" y1="2400" x2="870" y2="2040"/>
    <line class="hatch" x1="510" y1="2460" x2="930" y2="2040"/>
    <line class="hatch" x1="510" y1="2520" x2="990" y2="2040"/>
    <line class="hatch" x1="540" y1="2550" x2="1020" y2="2070"/>
    <line class="hatch" x1="600" y1="2550" x2="1020" y2="2130"/>
    <line class="hatch" x1="660" y1="2550" x2="1020" y2="2190"/>
    <line class="hatch" x1="720" y1="2550" x2="1020" y2="2250"/>
    <line class="hatch" x1="780" y1="2550" x2="1020" y2="2310"/>
    <line class="hatch" x1="840" y1="2550" x2="1020" y2="2370"/>
    <line class="hatch" x1="900" y1="2550" x2="1020" y2="2430"/>
    <line class="hatch" x1="960" y1="2550" x2="1020" y2="2490"/>
  </g>
  <g id="hatch-3-4">
    <line class="hatch" x1="1530" y1="2100" x2="1590" y2="2040"/>
    <line class="hatch" x1="1530" y1="2160" x2="1650" y2="2040"/>
    <line class="hatch" x1="1530" y1="2220" x2="1710" y2="2040"/>
    <line class="hatch" x1="1530" y1="2280" x2="1770" y2="2040"/>
    <line class="hatch" x1="1530" y1="2340" x2="1830" y2="2040"/>
    <line class="hatch" x1="1530" y1="2400" x2="1890" y2="2040"/>
    <line class="hatch" x1="1530" y1="2460" x2="1950" y2="2040"/>
    <line class="hatch" x1="1530" y1="2520" x2="2010" y2="2040"/>
    <line class="hatch" x1="1560" y1="2550" x2="2040" y2="2070"/>
    <line class="hatch" x1="1620" y1="2550" x2="2040" y2="2130"/>
    <line class="hatch" x1="1680" y1="2550" x2="2040" y2="2190"/>
    <line class="hatch" x1="1740" y1="2550" x2="2040" y2="2250"/>
    <line class="hatch" x1="1800" y1="2550" x2="2040" y2="2310"/>
    <line class="hatch" x1="1860" y1="2550" x2="2040" y2="2370"/>
    <line class="hatch" x1="1920" y1="2550" x2="2040" y2="2430"/>
    <line class="hatch" x1="1980" y1="2550" x2="2040" y2="2490"/>
  </g>
  <g id="hatch-5-4">
    <line class="hatch" x1="2550" y1="2100" x2="2610" y2="2040"/>
    <line class="hatch" x1="2550" y1="2160" x2="2670" y2="2040"/>
    <line class="hatch" x1="2550" y1="2220" x2="2730" y2="2040"/>
    <line class="hatch" x1="2550" y1="2280" x2="2790" y2="2040"/>
    <line class="hatch" x1="2550" y1="2340" x2="2850" y2="2040"/>
    <line class="hatch" x1="2550" y1="2400" x2="2910" y2="2040"/>
    <line class="hatch" x1="2550" y1="2460" x2="2970" y2="2040"/>
    <line class="hatch" x1="2550" y1="2520" x2="3030" y2="2040"/>
    <line class="hatch" x1="2580" y1="2550" x2="3060" y2="2070"/>
    <line class="hatch" x1="2640" y1="2550" x2="3060" y2="2130"/>
    <line class="hatch" x1="2700" y1="2550" x2="3060" y2="2190"/>
    <line class="hatch" x1="2760" y1="2550" x2="3060" y2="2250"/>
    <line class="hatch" x1="2820" y1="2550" x2="3060" y2="2310"/>
    <line class="hatch" x1="2880" y1="2550" x2="3060" y2="2370"/>
    <line class="hatch" x1="2940" y1="2550" x2="3060" y2="2430"/>
    <line class="hatch" x1="3000" y1="2550" x2="3060" y2="2490"/>
  </g>
  <g id="hatch-7-4">
    <line class="hatch" x1="3570" y1="2100" x2="3630" y2="2040"/>
    <line class="hatch" x1="3570" y1="2160" x2="3690" y2="2040"/>
    <line class="hatch" x1="3570" y1="2220" x2="3750" y2="2040"/>
    <line class="hatch" x1="3570" y1="2280" x2="3810" y2="2040"/>
    <line class="hatch" x1="3570" y1="2340" x2="3870" y2="2040"/>
    <line class="hatch" x1="3570" y1="2400" x2="3930" y2="2040"/>
    <line class="hatch" x1="3570" y1="2460" x2="3990" y2="2040"/>
    <line class="hatch" x1="3570" y1="2520" x2="4050" y2="2040"/>
    <line class="hatch" x1="3600" y1="2550" x2="4080" y2="2070"/>
    <line class="hatch" x1="3660" y1="2550" x2="4080" y2="2130"/>
    <line class="hatch" x1="3720" y1="2550" x2="4080" y2="2190"/>
    <line class="hatch" x1="3780" y1="2550" x2="4080" y2="2250"/>
    <line class="hatch" x1="3840" y1="2550" x2="4080" y2="2310"/>
    <line class="hatch" x1="3900" y1="2550" x2="4080" y2="2370"/>
    <line class="hatch" x1="3960" y1="2550" x2="4080" y2="2430"/>
    <line class="hatch" x1="4020" y1="2550" x2="4080" y2="2490"/>
  </g>
  <g id="hatch-0-5">
    <line class="hatch" x1="0" y1="2610" x2="60" y2="2550"/>
    <line class="hatch" x1="0" y1="2670" x2="120" y2="2550"/>
    <line class="hatch" x1="0" y1="2730" x2="180" y2="2550"/>
    <line class="hatch" x1="0" y1="2790" x2="240" y2="2550"/>
    <line class="hatch" x1="0" y1="2850" x2="300" y2="2550"/>
    <line class="hatch" x1="0" y1="2910" x2="360" y2="2550"/>
    <line class="hatch" x1="0" y1="2970" x2="420" y2="2550"/>
    <line class="hatch" x1="0" y1="3030" x2="480" y2="2550"/>
    <line class="hatch" x1="30" y1="3060" x2="510" y2="2580"/>
    <line class="hatch" x1="90" y1="3060" x2="510" y2="2640"/>
    <line class="hatch" x1="150" y1="3060" x2="510" y2="2700"/>
    <line class="hatch" x1="210" y1="3060" x2="510" y2="2760"/>
    <line class="hatch" x1="270" y1="3060" x2="510" y2="2820"/>
    <line class="hatch" x1="330" y1="3060" x2="510" y2="2880"/>
    <line class="hatch" x1="390" y1="3060" x2="510" y2="2940"/>
    <line class="hatch" x1="450" y1="3060" x2="510" y2="3000"/>
  </g>
  <g id="hatch-2-5">
    <line class="hatch" x1="1020" y1="2610" x2="1080" y2="2550"/>
    <line class="hatch" x1="1020" y1="2670" x2="1140" y2="2550"/>
    <line class="hatch" x1="1020" y1="2730" x2="1200" y2="2550"/>
    <line class="hatch" x1="1020" y1="2790" x2="1260" y2="2550"/>
    <line class="hatch" x1="1020" y1="2850" x2="1320" y2="2550"/>
    <line class="hatch" x1="1020" y1="2910" x2="1380" y2="2550"/>
    <line class="hatch" x1="1020" y1="2970" x2="1440" y2="2550"/>
    <line class="hatch" x1="1020" y1="3030" x2="1500" y2="2550"/>
    <line class="hatch" x1="1050" y1="3060" x2="1530" y2="2580"/>
    <line class="hatch" x1="1110" y1="3060" x2="1530" y2="2640"/>
    <line class="hatch" x1="1170" y1="3060" x2="1530" y2="2700"/>
    <line class="hatch" x1="1230" y1="3060" x2="1530" y2="2760"/>
    <line class="hatch" x1="1290" y1="3060" x2="1530" y2="2820"/>
    <line class="hatch" x1="1350" y1="3060" x2="1530" y2="2880"/>
    <line class="hatch" x1="1410" y1="3060" x2="1530" y2="2940"/>
    <line class="hatch" x1="1470" y1="3060" x2="1530" y2="3000"/>
  </g>
  <g id="hatch-4-5">
    <line class="hatch" x1="2040" y1="2610" x2="2100" y2="2550"/>
    <line class="hatch" x1="2040" y1="2670" x2="2160" y2="2550"/>
    <line class="hatch" x1="2040" y1="2730" x2="2220" y2="2550"/>
    <line class="hatch" x1="2040" y1="2790" x2="2280" y2="2550"/>
    <line class="hatch" x1="2040" y1="2850" x2="2340" y2="2550"/>
    <line class="hatch" x1="2040" y1="2910" x2="2400" y2="2550"/>
    <line class="hatch" x1="2040" y1="2970" x2="2460" y2="2550"/>
    <line class="hatch" x1="2040" y1="3030" x2="2520" y2="2550"/>
    <line class="hatch" x1="2070" y1="3060" x2="2550" y2="2580"/>
    <line class="hatch" x1="2130" y1="3060" x2="2550" y2="2640"/>
    <line class="hatch" x1="2190" y1="3060" x2="2550" y2="2700"/>
    <line class="hatch" x1="2250" y1="3060" x2="2550" y2="2760"/>
    <line class="hatch" x1="2310" y1="3060" x2="2550" y2="2820"/>
    <line class="hatch" x1="2370" y1="3060" x2="2550" y2="2880"/>
    <line class="hatch" x1="2430" y1="3060" x2="2550" y2="2940"/>
    <line class="hatch" x1="2490" y1="3060" x2="2550" y2="3000"/>
  </g>
  <g id="hatch-6-5">
    <line class="hatch" x1="3060" y1="2610" x2="3120" y2="2550"/>
    <line class="hatch" x1="3060" y1="2670" x2="3180" y2="2550"/>
    <line class="hatch" x1="3060" y1="2730" x2="3240" y2="2550"/>
    <line class="hatch" x1="3060" y1="2790" x2="3300" y2="2550"/>
    <line class="hatch" x1="3060" y1="2850" x2="3360" y2="2550"/>
    <line class="hatch" x1="3060" y1="2910" x2="3420" y2="2550"/>
    <line class="hatch" x1="3060" y1="2970" x2="3480" y2="2550"/>
    <line class="hatch" x1="3060" y1="3030" x2="3540" y2="2550"/>
    <line class="hatch" x1="3090" y1="3060" x2="3570" y2="2580"/>
    <line class="hatch" x1="3150" y1="3060" x2="3570" y2="2640"/>
    <line class="hatch" x1="3210" y1="3060" x2="3570" y2="2700"/>
    <line class="hatch" x1="3270" y1="3060" x2="3570" y2="2760"/>
    <line class="hatch" x1="3330" y1="3060" x2="3570" y2="2820"/>
    <line class="hatch" x1="3390" y1="3060" x2="3570" y2="2880"/>
    <line class="hatch" x1="3450" y1="3060" x2="3570" y2="2940"/>
    <line class="hatch" x1="3510" y1="3060" x2="3570" y2="3000"/>
  </g>
  <g id="hatch-1-6">
    <line class="hatch" x1="510" y1="3120" x2="570" y2="3060"/>
    <line class="hatch" x1="510" y1="3180" x2="630" y2="3060"/>
    <line class="hatch" x1="510" y1="3240" x2="690" y2="3060"/>
    <line class="hatch" x1="510" y1="3300" x2="750" y2="3060"/>
    <line class="hatch" x1="510" y1="3360" x2="810" y2="3060"/>
    <line class="hatch" x1="510" y1="3420" x2="870" y2="3060"/>
    <line class="hatch" x1="510" y1="3480" x2="930" y2="3060"/>
    <line class="hatch" x1="510" y1="3540" x2="990" y2="3060"/>
    <line class="hatch" x1="540" y1="3570" x2="1020" y2="3090"/>
    <line class="hatch" x1="600" y1="3570" x2="1020" y2="3150"/>
    <line class="hatch" x1="660" y1="3570" x2="1020" y2="3210"/>
    <line class="hatch" x1="720" y1="3570" x2="1020" y2="3270"/>
    <line class="hatch" x1="780" y1="3570" x2="1020" y2="3330"/>
    <line class="hatch" x1="840" y1="3570" x2="1020" y2="3390"/>
    <line class="hatch" x1="900" y1="3570" x2="1020" y2="3450"/>
    <line class="hatch" x1="960" y1="3570" x2="1020" y2="3510"/>
  </g>
  <g id="hatch-3-6">
    <line class="hatch" x1="1530" y1="3120" x2="1590" y2="3060"/>
    <line class="hatch" x1="1530" y1="3180" x2="1650" y2="3060"/>
    <line class="hatch" x1="1530" y1="3240" x2="1710" y2="3060"/>
    <line class="hatch" x1="1530" y1="3300" x2="1770" y2="3060"/>
    <line class="hatch" x1="1530" y1="3360" x2="1830" y2="3060"/>
    <line class="hatch" x1="1530" y1="3420" x2="1890" y2="3060"/>
    <line class="hatch" x1="1530" y1="3480" x2="1950" y2="3060"/>
    <line class="hatch" x1="1530" y1="3540" x2="2010" y2="3060"/>
    <line class="hatch" x1="1560" y1="3570" x2="2040" y2="3090"/>
    <line class="hatch" x1="1620" y1="3570" x2="2040" y2="3150"/>
    <line class="hatch" x1="1680" y1="3570" x2="2040" y2="3210"/>
    <line class="hatch" x1="1740" y1="3570" x2="2040" y2="3270"/>
    <line class="hatch" x1="1800" y1="3570" x2="2040" y2="3330"/>
    <line class="hatch" x1="1860" y1="3570" x2="2040" y2="3390"/>
    <line class="hatch" x1="1920" y1="3570" x2="2040" y2="3450"/>
    <line class="hatch" x1="1980" y1="3570" x2="2040" y2="3510"/>
  </g>
  <g id="hatch-5-6">
    <line class="hatch" x1="2550" y1="3120" x2="2610" y2="3060"/>
    <line class="hatch" x1="2550" y1="3180" x2="2670" y2="3060"/>
    <line class="hatch" x1="2550" y1="3240" x2="2730" y2="3060"/>
    <line class="hatch" x1="2550" y1="3300" x2="2790" y2="3060"/>
    <line class="hatch" x1="2550" y1="3360" x2="2850" y2="3060"/>
    <line class="hatch" x1="2550" y1="3420" x2="2910" y2="3060"/>
    <line class="hatch" x1="2550" y1="3480" x2="2970" y2="3060"/>
    <line class="hatch" x1="2550" y1="3540" x2="3030" y2="3060"/>
    <line class="hatch" x1="2580" y1="3570" x2="3060" y2="3090"/>
    <line class="hatch" x1="2640" y1="3570" x2="3060" y2="3150"/>
    <line class="hatch" x1="2700" y1="3570" x2="3060" y2="3210"/>
    <line class="hatch" x1="2760" y1="3570" x2="3060" y2="3270"/>
    <line class="hatch" x1="2820" y1="3570" x2="3060" y2="3330"/>
    <line class="hatch" x1="2880" y1="3570" x2="3060" y2="3390"/>
    <line class="hatch" x1="2940" y1="3570" x2="3060" y2="3450"/>
    <line class="hatch" x1="3000" y1="3570" x2="3060" y2="3510"/>
  </g>
  <g id="hatch-7-6">
    <line class="hatch" x1="3570" y1="3120" x2="3630" y2="3060"/>
    <line class="hatch" x1="3570" y1="3180" x2="3690" y2="3060"/>
    <line class="hatch" x1="3570" y1="3240" x2="3750" y2="3060"/>
    <line class="hatch" x1="3570" y1="3300" x2="3810" y2="3060"/>
    <line class="hatch" x1="3570" y1="3360" x2="3870" y2="3060"/>
    <line class="hatch" x1="3570" y1="3420" x2="3930" y2="3060"/>
    <line class="hatch" x1="3570" y1="3480" x2="3990" y2="3060"/>
    <line class="hatch" x1="3570" y1="3540" x2="4050" y2="3060"/>
    <line class="hatch" x1="3600" y1="3570" x2="4080" y2="3090"/>
    <line class="hatch" x1="3660" y1="3570" x2="4080" y2="3150"/>
    <line class="hatch" x1="3720" y1="3570" x2="4080" y2="3210"/>
    <line class="hatch" x1="3780" y1="3570" x2="4080" y2="3270"/>
    <line class="hatch" x1="3840" y1="3570" x2="4080" y2="3330"/>
    <line class="hatch" x1="3900" y1="3570" x2="4080" y2="3390"/>
    <line class="hatch" x1="3960" y1="3570" x2="4080" y2="3450"/>
    <line class="hatch" x1="4020" y1="3570" x2="4080" y2="3510"/>
  </g>
  <g id="hatch-0-7">
    <line class="hatch" x1="0" y1="3630" x2="60" y2="3570"/>
    <line class="hatch" x1="0" y1="3690" x2="120" y2="3570"/>
    <line class="hatch" x1="0" y1="3750" x2="180" y2="3570"/>
    <line class="hatch" x1="0" y1="3810" x2="240" y2="3570"/>
    <line class="hatch" x1="0" y1="3870" x2="300" y2="3570"/>
    <line class="hatch" x1="0" y1="3930" x2="360" y2="3570"/>
    <line class="hatch" x1="0" y1="3990" x2="420" y2="3570"/>
    <line class="hatch" x1="0" y1="4050" x2="480" y2="3570"/>
    <line class="hatch" x1="30" y1="4080" x2="510" y2="3600"/>
    <line class="hatch" x1="90" y1="4080" x2="510" y2="3660"/>
    <line class="hatch" x1="150" y1="4080" x2="510" y2="3720"/>
    <line class="hatch" x1="210" y1="4080" x2="510" y2="3780"/>
    <line class="hatch" x1="270" y1="4080" x2="510" y2="3840"/>
    <line class="hatch" x1="330" y1="4080" x2="510" y2="3900"/>
    <line class="hatch" x1="390" y1="4080" x2="510" y2="3960"/>
    <line class="hatch" x1="450" y1="4080" x2="510" y2="4020"/>
  </g>
  <g id="hatch-2-7">
    <line class="hatch" x1="1020" y1="3630" x2="1080" y2="3570"/>
    <line class="hatch" x1="1020" y1="3690" x2="1140" y2="3570"/>
    <line class="hatch" x1="1020" y1="3750" x2="1200" y2="3570"/>
    <line class="hatch" x1="1020" y1="3810" x2="1260" y2="3570"/>
    <line class="hatch" x1="1020" y1="3870" x2="1320" y2="3570"/>
    <line class="hatch" x1="1020" y1="3930" x2="1380" y2="3570"/>
    <line class="hatch" x1="1020" y1="3990" x2="1440" y2="3570"/>
    <line class="hatch" x1="1020" y1="4050" x2="1500" y2="3570"/>
    <line class="hatch" x1="1050" y1="4080" x2="1530" y2="3600"/>
    <line class="hatch" x1="1110" y1="4080" x2="1530" y2="3660"/>
    <line class="hatch" x1="1170" y1="4080" x2="1530" y2="3720"/>
    <line class="hatch" x1="1230" y1="4080" x2="1530" y2="3780"/>
    <line class="hatch" x1="1290" y1="4080" x2="1530" y2="3840"/>
    <line class="hatch" x1="1350" y1="4080" x2="1530" y2="3900"/>
    <line class="hatch" x1="1410" y1="4080" x2="1530" y2="3960"/>
    <line class="hatch" x1="1470" y1="4080" x2="1530" y2="4020"/>
  </g>
  <g id="hatch-4-7">
    <line class="hatch" x1="2040" y1="3630" x2="2100" y2="3570"/>
    <line class="hatch" x1="2040" y1="3690" x2="2160" y2="3570"/>
    <line class="hatch" x1="2040" y1="3750" x2="2220" y2="3570"/>
    <line class="hatch" x1="2040" y1="3810" x2="2280" y2="3570"/>
    <line class="hatch" x1="2040" y1="3870" x2="2340" y2="3570"/>
    <line class="hatch" x1="2040" y1="3930" x2="2400" y2="3570"/>
    <line class="hatch" x1="2040" y1="3990" x2="2460" y2="3570"/>
    <line class="hatch" x1="2040" y1="4050" x2="2520" y2="3570"/>
    <line class="hatch" x1="2070" y1="4080" x2="2550" y2="3600"/>
    <line class="hatch" x1="2130" y1="4080" x2="2550" y2="3660"/>
    <line class="hatch" x1="2190" y1="4080" x2="2550" y2="3720"/>
    <line class="hatch" x1="2250" y1="4080" x2="2550" y2="3780"/>
    <line class="hatch" x1="2310" y1="4080" x2="2550" y2="3840"/>
    <line class="hatch" x1="2370" y1="4080" x2="2550" y2="3900"/>
    <line class="hatch" x1="2430" y1="4080" x2="2550" y2="3960"/>
    <line class="hatch" x1="2490" y1="4080" x2="2550" y2="4020"/>
  </g>
  <g id="hatch-6-7">
    <line class="hatch" x1="3060" y1="3630" x2="3120" y2="3570"/>
    <line class="hatch" x1="3060" y1="3690" x2="3180" y2="3570"/>
    <line class="hatch" x1="3060" y1="3750" x2="3240" y2="3570"/>
    <line class="hatch" x1="3060" y1="3810" x2="3300" y2="3570"/>
    <line class="hatch" x1="3060" y1="3870" x2="3360" y2="3570"/>
    <line class="hatch" x1="3060" y1="3930" x2="3420" y2="3570"/>
    <line class="hatch" x1="3060" y1="3990" x2="3480" y2="3570"/>
    <line class="hatch" x1="3060" y1="4050" x2="3540" y2="3570"/>
    <line class="hatch" x1="3090" y1="4080" x2="3570" y2="3600"/>
    <line class="hatch" x1="3150" y1="4080" x2="3570" y2="3660"/>
    <line class="hatch" x1="3210" y1="4080" x2="3570" y2="3720"/>
    <line class="hatch" x1="3270" y1="4080" x2="3570" y2="3780"/>
    <line class="hatch" x1="3330" y1="4080" x2="3570" y2="3840"/>
    <line class="hatch" x1="3390" y1="4080" x2="3570" y2="3900"/>
    <line class="hatch" x1="3450" y1="4080" x2="3570" y2="3960"/>
    <line class="hatch" x1="3510" y1="4080" x2="3570" y2="4020"/>
  </g>
</svg>
